<?xml version="1.0" standalone="no"?>
<!DOCTYPE svg PUBLIC "-//W3C//DTD SVG 20010904//EN"
 "http://www.w3.org/TR/2001/REC-SVG-20010904/DTD/svg10.dtd">
<svg version="1.0" xmlns="http://www.w3.org/2000/svg"
 width="1080.000000pt" height="1080.000000pt" viewBox="0 0 1080.000000 1080.000000"
 preserveAspectRatio="xMidYMid meet">

<g transform="translate(0.000000,1080.000000) scale(0.100000,-0.100000)"
fill="#000000" stroke="none">
<path d="M5310 9851 c0 -5 10 -22 23 -38 13 -15 69 -92 126 -170 56 -79 104
-143 107 -143 2 0 4 15 4 33 0 47 -203 327 -237 327 -13 0 -23 -4 -23 -9z"/>
<path d="M5183 9843 c-20 -4 -21 -7 -12 -25 17 -31 33 -283 19 -307 -10 -20
-8 -21 30 -21 44 0 44 0 30 32 -5 13 -14 82 -19 153 -8 108 -7 134 5 153 14
21 13 22 -8 21 -13 -1 -33 -4 -45 -6z"/>
<path d="M5557 9830 c8 -31 19 -32 31 -5 11 23 9 25 -12 25 -19 0 -23 -4 -19
-20z"/>
<path d="M5711 9824 c5 -16 16 -36 23 -44 7 -8 50 -85 96 -170 82 -150 84
-153 92 -122 8 29 0 48 -78 189 -47 87 -87 159 -88 160 0 1 -13 4 -29 8 -27 7
-27 7 -16 -21z"/>
<path d="M4983 9822 c-8 -5 -3 -11 13 -19 22 -10 25 -9 22 4 -4 19 -18 26 -35
15z"/>
<path d="M4874 9802 c-9 -5 -4 -48 17 -160 22 -119 26 -158 18 -174 -11 -20
-9 -21 21 -14 18 3 39 6 48 6 13 0 13 3 -2 19 -14 16 -62 228 -68 309 -2 22
-14 27 -34 14z"/>
<path d="M5948 9785 c5 -31 12 -31 35 0 l18 25 -29 0 c-26 0 -29 -3 -24 -25z"/>
<path d="M4763 9783 c-12 -4 -19 -33 -8 -33 3 0 14 9 25 20 19 19 11 25 -17
13z"/>
<path d="M6091 9744 c-38 -48 -28 -76 61 -171 29 -31 48 -61 48 -75 0 -30 -26
-67 -54 -78 -19 -8 -17 -9 10 -9 43 -1 84 38 84 79 0 42 -13 64 -77 133 -56
61 -64 87 -37 125 23 33 -8 30 -35 -4z"/>
<path d="M6235 9734 c4 -11 11 -32 15 -49 6 -24 9 -26 14 -12 15 40 14 46 -11
62 -25 17 -26 17 -18 -1z"/>
<path d="M4622 9701 c18 -16 34 -29 35 -28 1 1 -1 14 -4 30 -4 22 -11 27 -34
27 l-29 0 32 -29z"/>
<path d="M4480 9691 c-30 -57 1 -113 75 -132 75 -18 125 -41 135 -59 17 -31
11 -72 -12 -98 l-23 -25 32 18 c58 34 67 102 20 149 -13 13 -52 30 -92 40
-100 25 -118 38 -113 87 4 42 -5 50 -22 20z"/>
<path d="M6530 9629 c0 -40 -96 -260 -122 -280 -20 -16 -20 -16 18 -31 l39
-16 6 37 c3 20 31 94 62 165 32 71 56 130 55 131 -2 0 -15 6 -30 13 -27 11
-28 11 -28 -19z"/>
<path d="M4310 9640 c-13 -8 -13 -10 2 -10 9 0 25 -3 35 -7 16 -6 16 -5 4 10
-16 20 -20 20 -41 7z"/>
<path d="M4157 9578 c-27 -10 -27 -10 -7 -26 20 -18 109 -224 119 -278 l6 -31
35 15 c28 11 31 15 18 23 -8 5 -26 35 -38 66 -13 32 -33 81 -45 108 -12 28
-27 66 -35 85 -18 47 -21 49 -53 38z"/>
<path d="M6710 9573 c0 -5 7 -18 15 -29 15 -18 15 -18 13 5 -3 23 -28 44 -28
24z"/>
<path d="M5316 9544 c-3 -11 -9 -25 -12 -31 -4 -9 3 -13 20 -13 29 0 31 5 12
39 -12 22 -14 22 -20 5z"/>
<path d="M5668 9531 c-15 -28 -15 -29 5 -35 28 -7 30 -4 20 33 l-8 31 -17 -29z"/>
<path d="M4013 9507 l-22 -10 25 -19 c29 -24 32 -22 25 13 -5 23 -9 25 -28 16z"/>
<path d="M6015 9490 c-5 -15 0 -26 17 -39 13 -11 24 -18 25 -18 4 5 -23 77
-29 77 -4 0 -10 -9 -13 -20z"/>
<path d="M6798 9467 c-90 -55 -134 -177 -93 -257 21 -40 26 -38 19 8 -15 95
80 241 169 262 30 7 29 8 -13 9 -30 1 -57 -6 -82 -22z"/>
<path d="M4311 9466 c-9 -11 -7 -15 12 -18 20 -4 23 -1 19 14 -5 22 -15 23
-31 4z"/>
<path d="M6590 9440 c12 -22 30 -18 30 6 0 8 -9 14 -20 14 -18 0 -19 -3 -10
-20z"/>
<path d="M6981 9422 c28 -82 -52 -231 -146 -273 l-40 -18 30 0 c43 -1 114 37
146 79 54 68 62 170 19 222 l-20 23 11 -33z"/>
<path d="M4530 9429 c1 -48 11 -59 59 -58 45 1 45 1 14 10 -17 5 -41 21 -52
35 -12 15 -21 21 -21 13z"/>
<path d="M3798 9387 c-14 -12 -13 -14 15 -26 18 -8 106 -47 196 -87 90 -41
167 -74 172 -74 5 0 3 12 -5 28 -11 22 -47 42 -178 100 -89 40 -167 72 -173
72 -5 0 -17 -6 -27 -13z"/>
<path d="M4447 9334 c-18 -24 -13 -31 11 -15 8 5 12 15 10 24 -2 12 -7 10 -21
-9z"/>
<path d="M7130 9328 c0 -27 -149 -231 -181 -248 l-22 -12 29 -24 c37 -30 40
-30 47 4 3 16 23 51 44 78 21 27 61 81 89 119 l51 71 -23 17 c-30 22 -34 22
-34 -5z"/>
<path d="M3666 9296 c-28 -23 -28 -24 -7 -31 22 -7 181 -235 181 -260 0 -20
10 -18 43 9 27 21 27 24 9 28 -23 6 -182 233 -182 260 0 24 -9 22 -44 -6z"/>
<path d="M7273 9216 c1 -44 -43 -96 -82 -96 -21 0 -23 -2 -11 -10 25 -16 66
-11 94 11 20 16 26 29 26 57 0 20 -7 45 -14 55 -13 16 -14 15 -13 -17z"/>
<path d="M3571 9227 c-8 -11 -4 -13 20 -9 22 3 27 7 18 13 -19 12 -25 11 -38
-4z"/>
<path d="M7110 9056 c0 -56 -4 -98 -11 -101 -8 -6 44 -55 59 -55 8 0 -11 226
-20 238 -22 26 -28 8 -28 -82z"/>
<path d="M3441 9124 c-24 -18 -27 -34 -6 -34 17 0 173 -192 189 -232 13 -34
13 -34 50 -4 28 23 28 24 7 31 -12 4 -67 62 -121 130 -94 118 -99 123 -119
109z"/>
<path d="M3950 9100 c0 -33 7 -37 33 -17 14 11 14 14 -9 30 l-24 18 0 -31z"/>
<path d="M3623 9067 c-10 -22 -9 -23 13 -19 20 3 22 7 13 23 -12 24 -14 24
-26 -4z"/>
<path d="M4813 9026 c3 -7 9 -34 12 -60 4 -25 11 -46 16 -46 12 0 11 8 -2 70
-6 27 -15 50 -21 50 -6 0 -8 -6 -5 -14z"/>
<path d="M7570 8976 c0 -15 -11 -65 -25 -110 -26 -85 -64 -136 -128 -168 l-27
-14 30 -29 c24 -23 30 -26 30 -11 0 10 24 41 53 69 46 45 57 63 76 127 13 41
30 81 39 88 15 11 13 16 -16 44 l-32 33 0 -29z"/>
<path d="M3220 8915 c-10 -12 -7 -14 18 -12 23 1 28 5 20 15 -14 16 -23 15
-38 -3z"/>
<path d="M5267 8923 c-11 -11 -8 -966 3 -983 6 -10 10 159 10 488 0 276 -1
502 -3 502 -2 0 -7 -3 -10 -7z"/>
<path d="M5885 8446 c-97 -245 -175 -451 -172 -458 3 -8 9 -1 16 17 7 17 89
221 182 453 93 233 169 426 169 428 0 2 -4 4 -9 4 -4 0 -88 -200 -186 -444z"/>
<path d="M7723 8821 c-10 -17 -8 -19 18 -23 28 -4 29 -4 12 16 -10 12 -18 22
-18 23 -1 1 -6 -6 -12 -16z"/>
<path d="M4860 8814 c0 -23 168 -873 177 -894 25 -59 2 82 -75 462 -81 398
-102 488 -102 432z"/>
<path d="M3100 8785 l-23 -25 21 0 c24 0 215 -168 236 -207 l12 -23 29 30 c26
27 27 30 9 30 -12 0 -65 42 -125 98 -145 134 -132 126 -159 97z"/>
<path d="M3290 8760 c0 -14 7 -20 22 -20 20 0 21 1 3 20 -10 11 -20 20 -22 20
-1 0 -3 -9 -3 -20z"/>
<path d="M5627 8760 c-3 -8 -31 -148 -62 -310 -31 -162 -67 -349 -80 -415 -13
-66 -21 -122 -19 -125 10 -9 21 23 34 93 6 40 41 222 77 405 35 184 62 341 60
350 -3 15 -5 15 -10 2z"/>
<path d="M3470 8696 c0 -22 3 -27 11 -19 8 8 8 16 0 30 -9 16 -10 14 -11 -11z"/>
<path d="M7715 8663 c-71 -37 -125 -113 -125 -177 0 -48 16 -54 24 -8 12 81
134 175 228 176 42 1 44 2 25 13 -31 17 -116 15 -152 -4z"/>
<path d="M2992 8647 c-28 -29 -27 -33 2 -41 13 -3 46 -23 73 -43 26 -21 67
-51 91 -67 24 -16 55 -43 69 -60 l25 -30 24 29 24 30 -25 6 c-29 8 -230 153
-248 180 -13 18 -14 18 -35 -4z"/>
<path d="M4569 8573 c33 -81 260 -615 283 -665 12 -27 26 -48 31 -48 5 0 7 6
4 13 -3 6 -58 136 -122 287 -64 151 -134 315 -155 365 -21 49 -43 91 -49 93
-7 2 -3 -17 8 -45z"/>
<path d="M7927 8552 c-13 -63 -122 -155 -209 -176 -15 -3 -39 -1 -55 5 -26 10
-27 9 -11 -7 22 -22 105 -30 153 -14 82 27 163 147 137 204 -8 18 -9 17 -15
-12z"/>
<path d="M4190 8563 c0 -14 123 -193 132 -193 14 0 10 6 -57 108 -54 82 -75
106 -75 85z"/>
<path d="M2871 8481 c-26 -36 -26 -41 0 -41 25 0 224 -143 246 -177 l16 -23
24 32 24 33 -23 3 c-27 5 -219 142 -247 178 l-19 25 -21 -30z"/>
<path d="M3745 8450 c21 -22 44 -40 49 -40 6 0 -8 18 -29 40 -21 22 -44 40
-49 40 -6 0 8 -18 29 -40z"/>
<path d="M6214 8313 c-64 -98 -119 -187 -122 -198 -8 -34 10 -9 130 175 141
216 131 200 119 200 -6 0 -63 -80 -127 -177z"/>
<path d="M8020 8440 c0 -5 -47 -37 -105 -71 -58 -34 -114 -73 -125 -87 -24
-29 -26 -90 -5 -118 14 -18 14 -17 9 12 -11 57 15 86 136 154 61 34 117 59
125 56 19 -7 19 -2 0 34 -15 29 -35 40 -35 20z"/>
<path d="M6607 8238 c-91 -95 -164 -175 -161 -177 6 -6 344 330 344 341 0 22
-32 -7 -183 -164z"/>
<path d="M2811 8387 c-15 -15 -14 -32 2 -19 6 5 21 12 32 14 19 4 19 4 -2 10
-12 3 -26 1 -32 -5z"/>
<path d="M3861 8333 c101 -113 683 -713 692 -713 13 0 20 -7 -371 402 -178
186 -329 338 -335 338 -6 0 0 -12 14 -27z"/>
<path d="M2753 8285 c-3 -9 -4 -17 -2 -19 2 -2 62 -36 132 -76 70 -40 134 -82
142 -93 16 -24 17 -24 39 21 16 31 16 32 -6 32 -12 0 -82 34 -155 75 -74 41
-136 75 -139 75 -2 0 -7 -7 -11 -15z"/>
<path d="M4373 8287 c4 -12 333 -515 343 -526 2 -2 7 -2 10 2 8 7 -337 536
-350 537 -4 0 -6 -6 -3 -13z"/>
<path d="M7413 8274 c-7 -3 -9 -13 -6 -22 6 -15 5 -15 -10 -3 -15 11 -17 11
-17 -2 0 -24 31 -30 37 -8 3 12 11 17 19 14 8 -3 14 1 14 11 0 16 -13 19 -37
10z"/>
<path d="M8134 8223 c-9 -15 -7 -18 13 -18 15 0 23 5 21 14 -4 22 -22 23 -34
4z"/>
<path d="M7290 8208 c0 -10 -6 -15 -12 -13 -7 3 -35 -10 -62 -28 -76 -50 -118
-75 -151 -91 -16 -8 -33 -18 -38 -22 -4 -4 -17 -9 -28 -11 -29 -4 -75 -30 -98
-54 -12 -13 -26 -19 -35 -16 -10 4 -16 1 -16 -9 0 -9 -5 -12 -12 -8 -10 5 -10
4 -1 -6 9 -9 19 -9 50 1 21 7 45 19 54 26 8 7 19 13 23 13 6 0 65 26 146 63
38 18 110 67 110 76 0 4 12 7 28 6 18 0 26 5 24 14 -2 8 3 11 11 8 7 -3 19 4
25 14 7 10 19 19 27 19 8 0 15 7 15 15 0 17 -26 20 -36 4 -4 -8 -9 -7 -15 2
-7 11 -9 10 -9 -3z"/>
<path d="M2697 8187 c-3 -8 1 -21 9 -27 15 -13 17 -6 5 24 -6 17 -8 17 -14 3z"/>
<path d="M3590 8082 c0 -13 139 -102 144 -93 3 5 -26 29 -64 55 -73 48 -80 51
-80 38z"/>
<path d="M5990 8020 c-47 -10 -84 -25 -118 -49 -15 -11 -74 -39 -132 -62 -58
-23 -118 -51 -135 -63 -50 -35 -95 -79 -95 -95 0 -22 -110 -133 -160 -161 -49
-28 -106 -77 -98 -85 6 -6 139 72 149 87 3 5 13 6 22 2 13 -5 17 0 17 20 0 14
4 26 10 26 5 0 7 -6 4 -13 -3 -8 2 -20 11 -27 12 -10 15 -10 15 4 0 19 27 65
48 83 8 6 14 28 15 47 1 29 4 35 18 31 12 -4 20 1 24 15 7 21 76 60 107 60 12
0 16 4 12 12 -5 7 -3 8 5 3 7 -4 23 -2 34 4 12 6 51 17 87 26 36 8 71 22 78
32 8 10 19 25 25 33 7 8 29 23 51 33 33 15 59 17 204 12 105 -3 168 -9 173
-16 5 -8 8 -8 14 0 5 9 13 8 31 -4 14 -9 30 -12 37 -8 16 10 87 10 87 1 0 -5
6 -8 14 -8 8 0 17 -8 21 -17 6 -17 7 -17 19 0 8 10 20 15 30 11 17 -6 23 11 7
21 -13 7 -77 15 -176 20 -44 2 -109 9 -145 14 -83 14 -265 20 -310 11z m-102
-82 c-3 -7 -13 -15 -24 -17 -16 -3 -17 -1 -5 13 16 19 34 21 29 4z"/>
<path d="M6795 7979 c-16 -5 -56 -10 -87 -10 -37 0 -58 -5 -58 -12 0 -8 27
-12 85 -13 47 0 85 1 85 3 0 2 -10 8 -22 13 -22 8 -22 9 5 9 15 1 27 6 27 11
0 6 -1 10 -2 9 -2 0 -16 -5 -33 -10z"/>
<path d="M3810 7934 c1 -10 630 -434 643 -434 21 0 -24 33 -309 225 -306 206
-334 224 -334 209z"/>
<path d="M7515 7800 c-3 -5 -1 -10 4 -10 6 0 11 5 11 10 0 6 -2 10 -4 10 -3 0
-8 -4 -11 -10z"/>
<path d="M5770 7793 c-61 -19 -100 -36 -100 -45 0 -6 8 -7 18 -3 31 13 123 35
142 35 11 0 20 4 20 8 0 9 -56 13 -80 5z"/>
<path d="M7615 7790 c-4 -6 -15 -10 -26 -10 -10 0 -19 -5 -19 -11 0 -8 -6 -7
-17 2 -11 9 -14 10 -9 2 4 -7 2 -21 -3 -30 -10 -17 -11 -16 -12 2 -1 11 -1 23
0 28 2 11 -27 8 -34 -4 -5 -6 -12 -4 -20 8 -7 10 -17 14 -21 10 -5 -4 -2 -12
6 -17 13 -8 13 -10 -1 -10 -16 0 -34 -26 -31 -42 1 -4 -5 -5 -12 -2 -8 3 -16
0 -19 -8 -2 -7 -3 -3 -1 9 2 11 7 29 11 40 5 14 2 14 -14 -4 -11 -13 -28 -23
-37 -23 -10 0 -14 -5 -10 -11 4 -7 0 -9 -14 -5 -17 6 -21 1 -27 -25 -5 -23
-10 -28 -16 -18 -4 8 -4 16 3 20 7 4 6 9 -2 14 -7 4 -16 2 -20 -4 -4 -7 -11
-11 -16 -10 -23 4 -36 -2 -30 -16 3 -8 1 -15 -3 -15 -5 0 -11 6 -14 13 -3 9
-9 9 -26 -1 -16 -9 -21 -9 -21 0 0 6 -9 2 -20 -9 -13 -14 -26 -19 -41 -16 -14
4 -26 0 -33 -9 -16 -22 -86 -41 -86 -24 0 10 -15 10 -75 -2 -49 -10 -75 -19
-75 -28 0 -18 9 -18 54 1 20 8 36 11 36 6 0 -12 -34 -27 -66 -30 -12 -1 -15
-7 -11 -22 4 -17 3 -19 -6 -10 -16 16 -68 14 -110 -4 -43 -18 -50 -19 -42 -5
3 6 2 10 -4 10 -5 0 -17 -12 -26 -28 -17 -29 -55 -51 -89 -53 -12 0 -15 -3 -8
-6 21 -8 13 -33 -10 -35 -38 -2 -42 -3 -75 -17 -18 -7 -33 -17 -33 -22 0 -8
50 3 70 16 10 6 -28 -56 -50 -82 -5 -7 -10 -17 -10 -24 0 -8 -4 -8 -15 1 -13
11 -15 9 -13 -11 3 -20 -1 -24 -19 -22 -13 2 -23 -2 -23 -7 0 -15 -37 -49 -46
-42 -4 4 -4 2 -1 -4 4 -7 -5 -20 -20 -29 -15 -10 -38 -32 -52 -48 -41 -49 -64
-68 -77 -63 -7 3 -15 2 -18 -1 -3 -4 -16 -7 -29 -9 -12 -1 -48 -14 -80 -29
-32 -14 -68 -25 -80 -24 -12 1 -34 -1 -50 -6 -21 -5 -25 -10 -17 -20 19 -23
-12 -23 -34 -1 l-21 21 -9 -28 c-6 -15 -14 -27 -19 -27 -4 0 -6 4 -2 9 3 5 1
12 -5 16 -5 3 -10 1 -10 -4 0 -6 -4 -11 -10 -11 -5 0 -7 7 -3 16 4 11 2 15 -6
13 -7 -3 -12 -8 -12 -12 1 -4 1 -13 1 -21 0 -9 7 -12 19 -9 10 3 22 0 25 -6 8
-13 7 -13 -55 -16 -46 -2 -47 -1 -45 29 0 17 6 37 13 43 6 7 13 16 15 21 4 12
95 72 107 72 6 0 11 3 11 8 0 4 12 8 28 9 57 3 122 16 122 24 0 5 -7 9 -15 9
-18 0 -19 12 -3 28 7 7 8 12 3 12 -22 0 -155 -45 -155 -52 0 -4 -6 -8 -13 -8
-20 0 -102 -82 -115 -115 -6 -16 -14 -44 -17 -62 -6 -29 -3 -35 27 -53 39 -24
43 -24 60 -7 7 8 20 14 28 14 8 0 41 6 72 12 32 7 62 10 67 6 5 -3 14 2 19 11
5 9 13 16 18 16 5 0 14 2 19 3 82 23 135 35 149 35 17 0 30 5 111 40 17 8 34
13 38 12 5 -2 20 4 35 12 46 24 155 73 212 95 77 31 140 69 140 86 0 8 4 14 9
12 9 -2 89 86 118 130 9 13 21 23 28 23 7 0 58 22 113 50 120 59 219 100 242
100 9 0 21 5 28 12 6 6 24 12 39 13 62 4 172 37 176 53 4 15 5 15 6 -1 1 -13
7 -16 24 -12 25 6 148 25 160 25 5 0 6 4 3 9 -3 5 1 23 10 40 8 17 14 45 12
63 -3 30 -6 33 -32 30 -18 -3 -26 0 -22 7 4 6 14 11 22 11 8 0 14 4 14 9 0 13
-28 22 -35 11z m-98 -56 c-3 -3 -12 -4 -19 -1 -8 3 -5 6 6 6 11 1 17 -2 13 -5z
m83 -104 c0 -5 -5 -10 -11 -10 -5 0 -7 5 -4 10 3 6 8 10 11 10 2 0 4 -4 4 -10z
m-943 -195 c0 -14 -13 -19 -45 -18 -7 1 -11 -4 -9 -10 3 -10 -35 -57 -47 -57
-3 0 -6 7 -6 15 0 8 5 15 10 15 6 0 10 5 10 12 0 6 10 22 22 35 24 26 65 31
65 8z m-135 -124 c-10 -6 -8 -10 10 -14 23 -6 23 -7 3 -20 -11 -8 -35 -17 -53
-20 l-33 -7 23 31 c13 17 27 37 33 45 6 9 13 10 20 3 7 -7 6 -12 -3 -18z
m-161 -153 c-25 -39 -27 -34 -5 11 9 18 18 30 21 27 3 -3 -4 -20 -16 -38z
m-67 -52 c-9 -15 -19 -24 -22 -22 -2 3 3 17 12 32 10 14 20 23 23 21 2 -3 -3
-17 -13 -31z m-159 -114 c-3 -3 -11 0 -18 7 -9 10 -8 11 6 5 10 -3 15 -9 12
-12z"/>
<path d="M3586 7660 c9 -9 122 -62 364 -170 47 -21 157 -70 244 -109 87 -39
161 -69 164 -66 3 3 3 7 1 9 -9 9 -762 346 -772 346 -8 0 -8 -3 -1 -10z"/>
<path d="M5593 7632 c-46 -7 -22 -23 30 -20 30 2 50 7 47 13 -5 10 -36 13 -77
7z"/>
<path d="M6780 7580 c-13 -9 -13 -10 0 -10 8 0 22 5 30 10 13 9 13 10 0 10 -8
0 -22 -5 -30 -10z"/>
<path d="M6738 7563 c7 -3 16 -2 19 1 4 3 -2 6 -13 5 -11 0 -14 -3 -6 -6z"/>
<path d="M6707 7553 c-4 -3 -7 -11 -7 -17 0 -6 5 -5 12 2 6 6 9 14 7 17 -3 3
-9 2 -12 -2z"/>
<path d="M5880 7519 c0 -5 5 -7 10 -4 6 3 10 8 10 11 0 2 -4 4 -10 4 -5 0 -10
-5 -10 -11z"/>
<path d="M5203 7490 c-19 -9 -33 -23 -33 -33 0 -10 -4 -15 -10 -12 -5 3 -10 1
-10 -4 0 -16 20 -13 26 4 4 8 11 15 18 15 11 0 51 40 44 44 -2 1 -18 -5 -35
-14z"/>
<path d="M5880 7488 c0 -15 28 -20 57 -10 23 9 24 11 8 12 -11 2 -30 4 -42 5
-13 1 -23 -2 -23 -7z"/>
<path d="M6090 7485 c0 -8 -7 -15 -16 -15 -11 0 -14 -5 -10 -16 5 -12 2 -15
-10 -10 -8 3 -17 6 -20 6 -2 0 -1 7 2 15 4 8 1 15 -4 15 -18 0 -23 -19 -12
-40 14 -25 -4 -27 -22 -2 -11 15 -28 19 -91 20 -46 0 -89 7 -107 16 -27 13
-31 13 -39 -2 -7 -13 -12 -14 -23 -4 -19 15 -107 7 -208 -20 -111 -30 -120
-31 -120 -21 0 5 -7 10 -15 10 -8 0 -15 -4 -15 -9 0 -18 -29 -38 -45 -32 -17
7 -112 -39 -132 -64 -11 -13 -13 -13 -19 2 -4 10 1 26 12 39 l19 22 -22 -19
c-13 -11 -23 -24 -23 -30 0 -6 -7 -20 -15 -30 -12 -16 -17 -17 -30 -6 -12 10
-15 10 -15 -4 0 -10 -5 -14 -11 -11 -6 4 -8 13 -5 20 3 8 -1 19 -9 25 -10 9
-15 6 -20 -9 -3 -12 -15 -21 -26 -21 -10 0 -19 -4 -19 -10 0 -9 14 -14 33 -11
4 0 7 -4 7 -9 0 -13 -15 -13 -38 -1 -9 5 -25 12 -34 15 -14 4 -16 12 -11 37 6
30 5 31 -16 20 -54 -29 -1 -112 71 -111 59 1 198 51 198 71 0 4 17 10 37 14
21 4 41 11 44 17 11 17 29 -1 29 -27 0 -35 26 -55 68 -52 28 1 47 12 80 45 24
23 40 47 37 52 -3 6 -2 10 4 10 5 0 12 -6 14 -12 4 -10 6 -10 6 0 1 6 10 12
21 12 11 0 20 7 20 15 0 8 5 15 10 15 6 0 10 -4 10 -9 0 -6 12 -6 28 -2 15 5
36 5 46 1 19 -6 18 -8 -7 -30 -15 -13 -27 -27 -27 -32 0 -16 20 -8 42 17 14
17 24 21 29 14 4 -7 9 -4 14 10 6 21 11 22 58 16 57 -7 134 -28 185 -52 22 -9
46 -13 68 -8 26 4 36 2 40 -10 5 -11 10 -13 19 -5 9 8 15 8 20 0 3 -5 18 -10
33 -10 15 0 34 -5 42 -10 21 -13 6 -34 -59 -88 -42 -34 -55 -40 -71 -32 -20
11 -50 4 -50 -12 0 -5 8 -7 18 -4 9 3 24 1 32 -4 8 -5 10 -10 4 -10 -5 0 -19
-7 -30 -15 -18 -14 -17 -15 11 -9 36 8 115 51 115 63 0 12 103 111 115 111 6
0 28 18 49 40 30 32 35 41 22 46 -9 3 -16 17 -16 30 0 26 -14 32 -24 12 -4 -7
-4 -3 -2 9 3 20 0 22 -25 19 -16 -1 -32 -6 -36 -9 -3 -4 -13 -1 -21 6 -13 10
-15 9 -9 -7 6 -14 4 -17 -9 -12 -8 3 -29 6 -45 6 -18 0 -29 5 -29 14 0 8 -7
16 -15 20 -8 3 -15 12 -15 21 0 8 -4 15 -10 15 -5 0 -10 -7 -10 -15z m-385
-45 c-7 -11 -65 -9 -65 3 0 4 16 7 36 7 20 0 33 -4 29 -10z m-280 -80 c-3 -5
1 -10 9 -10 9 0 16 5 16 10 0 6 5 10 10 10 18 0 11 -26 -12 -46 -31 -27 -76
-46 -83 -34 -9 15 6 60 21 60 8 0 14 5 14 10 0 6 7 10 16 10 8 0 12 -4 9 -10z"/>
<path d="M5047 7402 c-21 -14 -36 -26 -35 -28 8 -7 77 22 86 36 15 25 -7 21
-51 -8z"/>
<path d="M3276 7351 c5 -5 200 -45 434 -90 234 -45 458 -88 499 -96 86 -18 91
-18 91 -6 0 5 -30 14 -66 20 -36 7 -262 50 -502 96 -446 87 -473 92 -456 76z"/>
<path d="M6943 7291 c-68 -14 -123 -30 -123 -35 0 -10 33 -5 178 25 56 12 102
26 102 30 0 12 -16 10 -157 -20z"/>
<path d="M3395 6950 c3 -5 28 -10 56 -10 27 0 49 5 49 10 0 6 -25 10 -56 10
-34 0 -53 -4 -49 -10z"/>
<path d="M3575 6950 c4 -6 133 -10 356 -10 226 0 349 4 349 10 0 6 -125 10
-356 10 -234 0 -353 -3 -349 -10z"/>
<path d="M6265 6950 c4 -6 185 -10 511 -10 329 0 504 3 504 10 0 7 -177 10
-511 10 -337 0 -508 -3 -504 -10z"/>
<path d="M7360 6950 c0 -5 22 -10 49 -10 28 0 53 5 56 10 4 6 -15 10 -49 10
-31 0 -56 -4 -56 -10z"/>
<path d="M5020 6901 c0 -8 -78 -22 -141 -26 -14 -1 -31 -5 -37 -9 -7 -4 -12
-4 -12 0 0 4 -8 0 -17 -8 -10 -8 -61 -23 -113 -33 -52 -10 -102 -22 -110 -26
-38 -18 -76 -32 -82 -31 -6 1 -100 -36 -183 -73 -16 -7 -61 -25 -100 -41 -84
-33 -115 -52 -115 -70 0 -8 -4 -13 -8 -11 -5 1 -37 -30 -72 -70 -46 -52 -78
-78 -114 -94 -28 -12 -80 -35 -116 -51 -91 -42 -154 -66 -203 -79 -59 -14
-155 -35 -199 -43 -24 -4 -38 -12 -38 -21 0 -8 -5 -15 -11 -15 -5 0 -8 4 -4 9
9 16 -9 20 -55 11 -25 -5 -66 -12 -93 -15 -26 -3 -45 -10 -42 -15 3 -4 -2 -21
-10 -36 -8 -16 -15 -44 -15 -61 0 -30 3 -33 31 -33 17 0 28 -4 24 -10 -3 -5
-16 -10 -28 -10 -22 -1 -22 -1 -2 -16 12 -9 21 -11 23 -4 2 5 15 10 28 10 13
0 24 5 24 11 0 8 6 7 17 -2 11 -9 14 -10 9 -2 -4 7 -2 21 3 30 10 17 11 16 12
-2 1 -11 1 -23 0 -27 0 -5 8 -8 19 -8 11 0 20 5 20 12 0 6 6 3 14 -8 8 -10 18
-15 22 -11 5 4 2 12 -6 17 -11 7 -12 10 -2 10 17 0 43 26 35 34 -4 3 1 6 9 6
9 0 19 6 22 13 8 16 0 -23 -9 -48 -7 -18 -5 -17 18 4 25 23 27 23 27 5 1 -18
1 -18 11 -1 5 9 7 22 3 28 -5 8 -1 8 14 0 18 -9 21 -7 27 26 6 32 8 35 17 19
7 -13 7 -21 -2 -26 -9 -6 -9 -9 0 -15 6 -4 18 1 25 11 8 11 15 14 15 7 0 -7 7
-10 16 -6 8 3 13 11 10 18 -8 21 6 26 19 8 11 -15 15 -15 29 -4 14 12 16 11
17 -5 0 -17 2 -16 11 3 11 23 38 39 38 23 0 -12 28 -2 62 23 14 11 31 16 38
12 7 -4 16 -1 21 6 7 11 9 10 9 -3 0 -21 21 -22 94 -5 27 7 51 18 54 25 4 14
-34 17 -43 2 -3 -5 -16 -10 -28 -10 l-21 0 20 14 c11 8 32 18 47 21 16 4 24
12 20 20 -4 11 0 12 21 2 14 -7 26 -16 26 -22 0 -6 3 -6 8 1 7 9 89 44 105 44
5 0 5 -4 2 -10 -3 -5 -1 -10 5 -10 6 0 16 14 22 31 6 18 16 28 23 25 8 -3 19
1 25 9 6 7 20 12 31 10 23 -5 24 1 5 20 -12 12 -16 12 -26 0 -17 -20 -60 -20
-60 1 0 8 4 13 9 9 5 -3 12 -1 16 4 3 6 13 7 22 4 11 -4 14 -2 9 5 -7 11 31
62 46 62 4 0 8 -7 8 -15 0 -8 -4 -15 -10 -15 -5 0 -10 -7 -10 -16 0 -12 9 -14
44 -10 44 4 92 23 83 32 -3 3 -21 -2 -41 -10 -20 -8 -36 -11 -36 -5 0 5 4 9
10 9 5 0 16 15 24 33 20 44 43 70 54 63 5 -3 9 2 8 12 -1 12 5 16 22 15 12 -2
22 2 22 7 0 15 37 49 46 42 4 -4 4 1 1 11 -4 11 -1 17 8 17 9 0 42 27 75 60
39 39 65 58 75 54 8 -4 15 -1 15 6 0 10 3 10 15 0 11 -9 15 -9 15 -1 0 7 6 11
13 9 6 -1 38 10 69 25 38 18 67 26 85 22 35 -6 66 3 60 18 -2 7 2 18 9 25 11
10 14 10 14 -1 0 -17 28 -43 36 -34 3 3 6 11 8 19 6 38 23 50 74 51 l51 2 -6
-30 c-13 -76 -97 -134 -222 -154 -44 -7 -81 -17 -81 -22 0 -5 7 -9 16 -9 11 0
14 -6 9 -20 -4 -11 -2 -20 4 -20 6 0 11 4 11 9 0 4 11 6 24 4 13 -3 27 0 30 6
4 6 18 11 31 11 13 0 30 7 39 15 8 8 21 15 29 15 7 0 28 16 46 35 17 19 36 35
41 35 9 0 20 27 19 44 0 5 4 12 10 15 5 4 11 23 13 44 1 27 -3 41 -17 52 -22
16 -75 20 -75 6z m-500 -245 l-21 -21 18 32 c10 18 20 28 22 22 2 -6 -6 -21
-19 -33z m-61 -41 c-23 -38 -32 -45 -22 -17 6 16 33 52 39 52 2 0 -6 -16 -17
-35z m-109 -92 c-5 -10 -21 -31 -35 -48 -19 -23 -27 -27 -37 -17 -9 9 -8 12 5
12 25 0 21 18 -5 22 -21 3 -21 5 10 21 17 10 32 15 32 12 0 -3 8 -1 18 4 23
14 24 14 12 -6z m-265 -133 c3 -5 1 -10 -4 -10 -6 0 -11 5 -11 10 0 6 2 10 4
10 3 0 8 -4 11 -10z m55 -80 c0 -5 -5 -10 -11 -10 -5 0 -7 5 -4 10 3 6 8 10
11 10 2 0 4 -4 4 -10z m-920 -130 c0 -5 -2 -10 -4 -10 -3 0 -8 5 -11 10 -3 6
-1 10 4 10 6 0 11 -4 11 -10z m87 -106 c-3 -3 -12 -4 -19 -1 -8 3 -5 6 6 6 11
1 17 -2 13 -5z"/>
<path d="M5013 6840 c-13 -5 -23 -15 -23 -21 0 -8 5 -7 17 2 15 12 16 12 10
-3 -4 -12 -2 -18 8 -18 9 0 15 10 15 25 0 14 -1 25 -2 24 -2 0 -13 -4 -25 -9z"/>
<path d="M3877 6690 c-225 -43 -412 -81 -415 -84 -14 -14 11 -12 128 9 289 54
667 125 688 130 19 5 33 27 15 24 -5 -1 -192 -36 -416 -79z"/>
<path d="M6240 6762 c0 -12 6 -14 214 -52 93 -17 212 -40 264 -51 52 -10 106
-19 121 -18 57 1 -18 20 -284 69 -148 28 -280 54 -292 57 -13 3 -23 1 -23 -5z"/>
<path d="M4731 6651 c-28 -10 -71 -42 -120 -88 -41 -40 -80 -73 -86 -73 -5 -1
-29 -18 -53 -40 -39 -35 -41 -39 -22 -45 13 -4 20 -15 20 -31 0 -13 5 -24 11
-24 5 0 7 5 4 10 -3 6 -1 10 6 10 6 0 9 -8 6 -20 -4 -16 0 -19 21 -18 15 1 33
6 40 11 8 6 12 6 12 -2 0 -6 4 -11 10 -11 5 0 7 7 4 15 -5 11 2 13 33 8 39 -6
82 -43 83 -73 0 -11 4 -9 12 5 27 46 58 56 58 19 0 -9 5 -12 11 -8 6 3 9 19 5
35 -7 35 11 39 20 5 4 -19 11 -23 40 -20 38 3 42 -3 17 -22 -17 -12 -16 -13 7
-15 14 -1 31 -1 38 0 8 1 21 -4 30 -11 12 -9 12 -6 -2 10 -11 12 -26 22 -35
22 -10 0 -12 3 -5 10 11 11 113 -4 123 -18 4 -4 14 -8 23 -8 11 -1 15 4 10 15
-5 14 -3 14 11 2 12 -9 34 -12 79 -8 68 7 191 31 232 47 18 7 25 6 23 -2 -1
-6 4 -13 11 -15 6 -3 12 1 12 9 0 7 9 19 20 26 11 7 20 8 20 2 0 -15 105 28
142 58 24 20 34 -4 11 -30 -18 -20 -18 -21 2 -10 11 6 27 26 35 46 14 37 30
48 30 21 0 -8 5 -15 10 -15 6 0 10 8 10 17 0 13 3 14 12 5 8 -8 8 -15 -3 -29
-7 -10 -9 -15 -5 -11 5 4 15 3 23 -3 10 -9 13 -8 13 4 0 18 33 40 44 30 3 -3
6 -1 6 5 0 11 -13 16 -32 13 -5 0 -8 4 -8 9 0 13 15 13 38 1 9 -5 25 -12 34
-15 14 -4 16 -12 12 -36 -4 -16 -4 -30 -1 -30 14 0 37 34 37 54 0 28 -50 66
-88 68 -47 2 -202 -47 -202 -64 0 -3 -18 -9 -39 -13 -22 -4 -42 -13 -45 -21
-9 -23 -26 -6 -26 25 0 36 -23 55 -67 56 -26 1 -44 -7 -79 -38 -24 -21 -44
-46 -44 -55 0 -13 -3 -12 -15 4 -15 18 -15 18 -8 0 5 -16 3 -18 -15 -14 -17 5
-22 2 -22 -13 0 -11 -7 -19 -16 -19 -8 0 -12 4 -9 10 4 6 -9 8 -34 5 -49 -6
-58 5 -26 35 31 30 32 38 1 33 -15 -3 -23 -10 -20 -18 7 -18 -16 -31 -26 -15
-6 9 -10 6 -15 -10 -7 -21 -11 -22 -63 -15 -52 6 -154 38 -177 55 -19 14 -58
19 -76 10 -12 -7 -22 -6 -33 5 -8 9 -19 15 -23 14 -4 -1 -11 0 -15 1 -18 6
-29 8 -53 9 -57 3 -37 49 47 107 31 22 43 26 57 17 11 -7 23 -8 34 -1 25 14
20 26 -8 20 -15 -2 -25 0 -25 7 0 6 6 11 14 11 14 0 32 18 25 24 -2 1 -24 -5
-48 -13z m708 -219 c-6 -18 -15 -29 -20 -26 -5 3 -9 0 -9 -5 0 -6 -7 -11 -16
-11 -8 0 -12 5 -9 10 9 14 -19 12 -33 -2 -9 -9 -12 -9 -12 3 0 29 84 86 103
70 4 -4 2 -22 -4 -39z m-648 -10 c-7 -2 -18 1 -23 6 -8 8 -4 9 13 5 13 -4 18
-8 10 -11z m341 -104 c-11 -11 -32 -3 -32 12 0 4 9 6 21 3 13 -4 17 -9 11 -15z
m38 2 c0 -5 -2 -10 -4 -10 -3 0 -8 5 -11 10 -3 6 -1 10 4 10 6 0 11 -4 11 -10z"/>
<path d="M6956 6621 c10 -10 103 -31 136 -31 39 0 5 17 -56 29 -72 13 -93 14
-80 2z"/>
<path d="M3268 6571 c-42 -9 -80 -19 -84 -23 -11 -11 12 -10 99 7 43 8 81 15
83 15 2 0 4 5 4 10 0 12 -6 12 -102 -9z"/>
<path d="M6196 6571 c19 -18 715 -298 720 -290 3 5 -5 13 -18 18 -13 5 -172
70 -355 145 -311 128 -371 149 -347 127z"/>
<path d="M5170 6456 c0 -2 7 -7 16 -10 8 -3 12 -2 9 4 -6 10 -25 14 -25 6z"/>
<path d="M5225 6440 c3 -5 11 -10 16 -10 6 0 7 5 4 10 -3 6 -11 10 -16 10 -6
0 -7 -4 -4 -10z"/>
<path d="M6102 6410 c2 -5 154 -110 338 -233 420 -281 390 -261 390 -248 0 10
-711 491 -726 491 -3 0 -4 -4 -2 -10z"/>
<path d="M5753 6367 c-18 -7 -38 -18 -45 -26 -20 -21 39 -5 70 20 28 21 22 23
-25 6z"/>
<path d="M5625 6308 c-18 -10 -55 -47 -55 -54 0 -11 70 33 70 44 0 7 5 10 10
7 6 -3 10 -1 10 4 0 14 -10 13 -35 -1z"/>
<path d="M4650 6260 c0 -5 7 -7 15 -4 8 4 15 8 15 10 0 2 -7 4 -15 4 -8 0 -15
-4 -15 -10z"/>
<path d="M5980 6264 c0 -16 709 -718 717 -710 7 7 -98 113 -604 610 -62 60
-113 106 -113 100z"/>
<path d="M4910 6249 c0 -5 5 -7 10 -4 6 3 10 8 10 11 0 2 -4 4 -10 4 -5 0 -10
-5 -10 -11z"/>
<path d="M5470 6213 c-36 -20 -67 -39 -70 -42 -3 -3 -12 -6 -20 -6 -8 0 -17
-11 -20 -25 l-6 -25 -7 28 c-8 30 -27 37 -27 9 0 -9 -14 -34 -31 -55 -17 -20
-28 -41 -24 -46 3 -5 0 -13 -6 -16 -5 -4 -8 -13 -5 -21 4 -10 -2 -14 -19 -14
-18 0 -25 -5 -25 -20 0 -11 -7 -20 -15 -20 -8 0 -15 -4 -15 -10 0 -5 -7 -7
-15 -4 -8 4 -17 -1 -21 -9 -3 -9 -12 -13 -20 -10 -8 3 -20 1 -27 -5 -6 -5 -54
-19 -105 -30 -76 -16 -97 -25 -115 -48 -12 -15 -24 -30 -27 -33 -10 -13 -83
-33 -133 -37 -29 -3 -98 1 -155 8 -57 8 -105 11 -108 7 -7 -12 29 -21 111 -26
44 -2 87 -7 95 -10 8 -4 18 -6 21 -5 4 1 38 2 75 3 58 1 81 8 149 41 44 22
115 53 158 69 120 44 227 116 227 152 0 22 120 137 173 164 26 14 47 29 47 33
0 5 9 12 20 15 19 6 29 26 13 24 -5 0 -37 -16 -73 -36z m-530 -373 c0 -5 -2
-10 -4 -10 -2 0 -12 -3 -20 -6 -12 -5 -15 -2 -10 10 7 17 34 22 34 6z"/>
<path d="M3990 6210 c0 -12 8 -12 35 0 18 8 17 9 -7 9 -16 1 -28 -3 -28 -9z"/>
<path d="M5130 6140 c0 -13 70 -13 90 0 11 7 0 10 -37 10 -29 0 -53 -4 -53
-10z"/>
<path d="M5840 6135 c0 -14 391 -597 397 -592 7 8 -17 47 -212 342 -148 222
-185 273 -185 250z"/>
<path d="M5703 6019 c8 -19 87 -218 177 -444 155 -390 180 -448 180 -415 0 28
-346 884 -359 888 -9 3 -9 -4 2 -29z"/>
<path d="M3265 6010 c-3 -5 -2 -10 4 -10 5 0 13 5 16 10 3 6 2 10 -4 10 -5 0
-13 -4 -16 -10z"/>
<path d="M5028 6001 c-43 -9 -78 -19 -78 -23 0 -18 163 12 175 32 7 12 2 11
-97 -9z"/>
<path d="M5490 5978 c0 -27 170 -991 175 -997 17 -16 10 40 -39 315 -30 170
-69 396 -88 501 -18 106 -36 193 -40 193 -5 0 -8 -6 -8 -12z"/>
<path d="M5288 5886 c-12 -123 -10 -812 2 -800 7 7 9 162 8 445 -2 273 -6 405
-10 355z"/>
<path d="M3981 5845 c20 -21 171 -33 164 -13 -4 9 -26 13 -68 13 -34 -1 -73 3
-87 8 -23 7 -24 7 -9 -8z"/>
<path d="M3865 5824 c-33 -14 -72 -29 -86 -33 -14 -5 -34 -13 -45 -18 -72 -37
-94 -49 -132 -75 -24 -15 -55 -28 -69 -28 -19 0 -24 -4 -19 -16 4 -12 2 -15
-9 -10 -9 3 -19 -3 -26 -15 -6 -12 -17 -18 -25 -15 -8 3 -14 -1 -14 -9 0 -10
10 -14 30 -12 16 1 30 6 30 10 0 5 4 6 9 3 10 -7 101 42 101 54 0 4 14 13 32
19 17 6 39 18 48 26 9 8 45 25 80 39 99 37 120 48 120 63 0 8 11 13 29 13 16
0 31 6 35 15 8 22 -19 19 -89 -11z"/>
<path d="M4205 5840 c-4 -6 -13 -9 -21 -6 -8 3 -14 -1 -14 -9 0 -13 57 -32 67
-21 3 3 14 1 25 -5 26 -14 148 -24 148 -12 0 17 -52 36 -60 22 -6 -8 -13 -8
-30 1 -12 6 -28 9 -36 6 -8 -3 -14 -2 -14 3 0 5 -8 11 -17 15 -10 3 -23 8 -30
12 -6 3 -14 0 -18 -6z"/>
<path d="M3973 5813 c9 -2 25 -2 35 0 9 3 1 5 -18 5 -19 0 -27 -2 -17 -5z"/>
<path d="M5066 5810 c-3 -8 -28 -123 -56 -255 -28 -132 -68 -325 -90 -430 -22
-104 -43 -202 -46 -217 -3 -17 -1 -28 5 -28 6 0 11 3 11 7 0 4 43 212 96 461
52 249 93 459 91 465 -3 8 -7 7 -11 -3z"/>
<path d="M4420 5801 c0 -6 4 -13 10 -16 6 -3 7 1 4 9 -7 18 -14 21 -14 7z"/>
<path d="M3917 5609 c-71 -72 -126 -134 -122 -137 3 -3 67 56 143 131 75 75
130 137 122 137 -8 0 -73 -59 -143 -131z"/>
<path d="M4415 5655 c-254 -395 -350 -555 -301 -505 29 31 347 543 343 554 -2
6 -21 -16 -42 -49z"/>
<path d="M4713 5645 c-30 -56 -174 -408 -169 -413 3 -3 8 -3 10 -1 12 12 176
414 173 423 -2 6 -8 2 -14 -9z"/>
<path d="M3370 5564 c0 -11 -6 -13 -19 -9 -15 5 -18 2 -14 -13 7 -27 43 -17
44 12 0 11 3 15 6 9 7 -18 23 -16 23 2 0 8 -9 15 -20 15 -11 0 -20 -7 -20 -16z"/>
<path d="M6750 5492 c0 -4 18 -26 40 -47 25 -24 40 -33 40 -24 0 8 -15 29 -33
47 -33 32 -47 39 -47 24z"/>
<path d="M6090 5058 c0 -24 39 -112 47 -105 3 4 -2 28 -12 54 -20 54 -35 76
-35 51z"/>
<path d="M3940 4678 c-71 -27 -141 -99 -172 -175 -19 -50 -23 -76 -23 -183 0
-120 1 -128 32 -192 39 -83 86 -131 212 -214 167 -109 213 -178 215 -319 2
-164 -80 -263 -199 -241 -58 11 -89 68 -101 186 -9 89 -13 100 -47 120 -41 26
-78 25 -111 -1 -39 -30 -36 -97 7 -181 73 -141 250 -187 414 -108 73 36 115
81 157 170 30 63 31 70 31 200 0 117 -3 141 -22 182 -33 72 -88 125 -209 204
-190 123 -225 172 -232 322 -7 144 31 214 123 229 70 11 119 -56 131 -179 11
-103 38 -138 107 -138 48 0 82 38 81 90 -2 54 -47 143 -95 183 -77 66 -197 84
-299 45z"/>
<path d="M4783 4681 c-95 -35 -154 -93 -213 -208 -104 -206 -119 -568 -34
-822 49 -145 123 -240 227 -287 53 -24 75 -28 152 -28 78 -1 98 3 152 28 156
71 254 258 283 539 28 269 -41 553 -167 688 -69 74 -137 102 -253 106 -75 3
-106 -1 -147 -16z m218 -24 c99 -66 148 -331 135 -722 -10 -301 -41 -454 -108
-530 -75 -87 -198 -65 -252 43 -50 102 -66 212 -73 502 -8 343 23 570 89 663
49 68 143 88 209 44z"/>
<path d="M5453 4655 l27 -26 1 -227 c0 -125 4 -357 8 -517 9 -330 16 -368 94
-453 51 -55 96 -78 181 -93 175 -30 295 34 358 191 22 54 23 67 28 565 3 281
9 517 14 525 5 8 18 25 29 38 l20 22 -68 0 -68 0 25 -25 c14 -14 28 -39 32
-56 3 -18 6 -235 6 -483 0 -356 -3 -465 -15 -520 -34 -159 -134 -246 -268
-233 -80 7 -136 64 -156 158 -7 32 -11 239 -11 576 l0 527 27 28 27 28 -160 0
-159 0 28 -25z"/>
<path d="M6374 4649 l26 -31 0 -604 0 -605 -25 -23 c-14 -13 -25 -26 -25 -30
0 -3 145 -5 322 -4 l322 3 16 105 c10 58 20 128 24 155 l6 50 -43 -90 c-80
-165 -124 -197 -284 -203 l-103 -4 0 630 0 631 27 26 28 25 -158 0 -159 0 26
-31z"/>
<path d="M4485 3061 c-81 -20 -164 -88 -203 -166 -53 -107 -55 -290 -3 -400
36 -79 85 -128 203 -206 180 -118 222 -181 223 -334 0 -78 -4 -97 -26 -140
-55 -107 -189 -129 -241 -39 -10 17 -24 74 -32 127 -14 104 -21 118 -66 137
-63 26 -120 -14 -120 -82 1 -88 64 -184 148 -225 50 -24 69 -28 147 -28 78 0
97 4 146 28 147 72 220 237 198 448 -15 137 -80 222 -250 326 -161 98 -210
166 -217 301 -6 105 10 163 54 202 95 83 186 23 200 -132 10 -108 38 -148 103
-148 43 0 60 9 77 42 19 37 12 82 -21 149 -56 110 -195 170 -320 140z"/>
<path d="M7063 3050 c-44 -15 -78 -35 -117 -71 -206 -188 -258 -719 -102
-1043 48 -99 103 -158 184 -198 61 -30 74 -33 162 -33 84 0 102 3 158 29 172
79 282 334 282 651 -1 322 -105 567 -277 652 -76 37 -199 42 -290 13z m208
-22 c48 -32 95 -131 115 -243 10 -58 18 -173 21 -322 10 -428 -33 -650 -137
-721 -29 -20 -44 -23 -88 -20 -43 4 -59 11 -88 39 -70 66 -97 172 -116 445
-20 298 10 622 67 733 23 46 67 94 95 104 37 13 98 6 131 -15z"/>
<path d="M3025 3025 l30 -25 0 -615 0 -615 -30 -25 -30 -25 240 3 c221 3 244
5 296 25 71 28 124 80 158 151 24 51 26 67 26 181 0 106 -3 132 -21 170 -44
95 -121 150 -234 169 -30 5 -43 9 -28 10 44 2 137 41 173 73 69 60 97 222 59
347 -21 73 -88 143 -163 173 -51 20 -76 22 -281 25 l-225 3 30 -25z m361 -14
c17 -10 38 -35 48 -54 24 -51 39 -188 31 -287 -13 -181 -50 -240 -151 -240
l-54 0 0 300 0 300 48 0 c28 0 59 -7 78 -19z m24 -619 c52 -25 77 -85 91 -212
19 -190 -6 -347 -66 -407 -31 -31 -37 -33 -104 -33 l-71 0 0 335 0 335 58 0
c34 0 71 -7 92 -18z"/>
<path d="M3823 3022 l27 -28 0 -609 0 -609 -27 -28 -27 -28 165 0 164 0 -32
26 -33 25 0 614 0 614 25 19 c14 11 25 23 25 26 0 3 -71 6 -157 6 l-157 0 27
-28z"/>
<path d="M4986 3028 c-14 -63 -45 -282 -41 -286 2 -3 7 4 11 14 4 10 24 56 45
101 59 123 128 173 243 173 l46 0 0 -626 0 -626 -31 -29 -31 -29 163 0 163 0
-30 31 -29 30 -3 512 c-2 282 0 563 3 625 l7 112 49 0 c118 0 190 -65 266
-240 l24 -55 -6 50 c-3 28 -12 98 -21 158 l-17 107 -403 0 -404 0 -4 -22z"/>
<path d="M5945 3026 l30 -24 0 -616 0 -616 -30 -25 -30 -24 159 -1 160 0 -30
31 -29 30 -3 217 c-2 119 -1 245 3 280 6 59 8 62 34 62 27 0 30 -7 117 -237
49 -130 103 -258 119 -282 43 -66 97 -92 201 -99 56 -3 84 -1 84 6 0 6 -9 14
-20 17 -26 8 -61 69 -111 192 -168 409 -170 416 -157 424 105 59 164 161 175
300 10 134 -21 242 -89 305 -75 71 -138 84 -406 84 l-207 0 30 -24z m366 -12
c21 -10 39 -34 57 -72 24 -52 27 -71 30 -205 8 -282 -36 -377 -172 -377 l-46
0 0 335 0 335 50 0 c28 0 65 -7 81 -16z"/>
<path d="M6689 1400 c41 -10 51 -24 51 -72 0 -60 -36 -139 -91 -201 l-51 -57
90 0 c88 0 90 0 95 26 3 20 1 24 -12 19 -25 -10 -121 -19 -121 -11 0 4 20 28
45 53 72 72 101 149 79 208 -9 22 -57 45 -91 44 -27 -1 -26 -1 6 -9z"/>
<path d="M6901 1394 c-74 -53 -81 -226 -11 -296 33 -32 61 -39 31 -7 -62 67
-47 281 22 309 21 8 21 9 2 9 -11 1 -31 -6 -44 -15z"/>
<path d="M6998 1394 c29 -20 40 -43 52 -103 12 -64 -3 -156 -31 -195 -12 -16
-15 -25 -8 -21 77 44 110 174 67 260 -18 36 -61 75 -82 75 -20 0 -20 0 2 -16z"/>
<path d="M7173 1398 c-29 -10 -33 -15 -33 -47 l0 -36 21 35 c26 42 36 50 71
50 44 0 61 -26 56 -85 -5 -65 -38 -131 -95 -195 l-45 -50 90 0 c88 0 90 0 95
26 3 20 1 24 -12 19 -25 -10 -121 -19 -121 -11 0 4 21 29 47 54 77 78 105 173
65 222 -21 26 -89 35 -139 18z"/>
<path d="M7530 1395 c-10 -12 -17 -49 -20 -109 l-5 -91 -54 -5 c-76 -7 -79
-28 -4 -32 l58 -3 0 -38 c0 -35 2 -37 33 -37 24 0 31 3 25 13 -4 6 -10 81 -13
166 -5 139 -6 152 -20 136z"/>
<path d="M3107 1382 c-20 -22 -22 -70 -4 -93 7 -9 32 -28 57 -44 75 -46 90
-64 90 -107 0 -32 -5 -41 -32 -58 -39 -23 -31 -26 17 -6 38 16 55 42 55 83 0
39 -21 66 -77 98 -27 15 -58 37 -70 48 -25 22 -30 66 -11 85 7 7 8 12 2 12 -6
0 -18 -8 -27 -18z"/>
<path d="M3243 1361 l22 -41 3 31 c4 35 4 34 -25 43 l-22 7 22 -40z"/>
<path d="M3360 1381 c5 -11 10 -74 10 -141 0 -67 -5 -130 -10 -141 -10 -17 -7
-19 24 -19 34 0 35 1 26 26 -13 32 -13 219 -1 262 10 32 9 32 -25 32 -31 0
-34 -2 -24 -19z"/>
<path d="M3507 1383 c4 -10 12 -22 19 -28 6 -5 58 -73 115 -150 97 -130 104
-138 107 -109 2 25 -14 53 -99 167 -80 106 -108 137 -126 137 -17 0 -21 -4
-16 -17z"/>
<path d="M3734 1364 c9 -31 11 -32 14 -12 2 12 9 29 14 36 8 9 4 12 -14 12
-24 0 -25 -1 -14 -36z"/>
<path d="M3855 1367 c-56 -56 -68 -153 -29 -228 17 -33 69 -69 99 -69 18 0 17
2 -5 13 -89 45 -103 206 -25 284 29 29 30 33 13 33 -11 0 -35 -15 -53 -33z"/>
<path d="M3999 1384 c13 -9 29 -31 37 -48 l13 -31 1 36 c0 29 -5 38 -25 47
-38 17 -53 15 -26 -4z"/>
<path d="M4115 1240 l0 -160 33 0 c29 0 32 2 22 19 -5 11 -10 83 -10 160 0
140 0 141 -22 141 -23 0 -23 -1 -23 -160z"/>
<path d="M4290 1396 c0 -2 7 -9 15 -16 12 -10 15 -10 15 4 0 9 -7 16 -15 16
-8 0 -15 -2 -15 -4z"/>
<path d="M6608 1393 c-13 -3 -18 -15 -18 -41 l0 -37 21 35 c12 19 27 38 33 42
12 8 -7 9 -36 1z"/>
<path d="M4229 1261 c-15 -17 -15 -19 2 -30 17 -10 19 -8 19 19 0 34 0 34 -21
11z"/>
<path d="M4680 1230 c0 -7 247 -10 721 -10 477 0 718 3 714 10 -4 7 -255 10
-721 10 -469 0 -714 -3 -714 -10z"/>
<path d="M3090 1119 c0 -22 5 -36 13 -36 6 0 21 -4 32 -8 18 -7 18 -6 4 6 -9
8 -24 28 -33 44 l-15 30 -1 -36z"/>
<path d="M3504 1105 c-11 -35 -11 -35 19 -35 23 0 27 3 19 13 -6 7 -15 23 -19
35 -8 20 -9 19 -19 -13z"/>
<path d="M4296 1095 c-19 -15 -19 -15 2 -15 13 0 22 6 22 15 0 18 0 18 -24 0z"/>
</g>
</svg>
